<?xml version="1.0" encoding="UTF-8"?>
<svg width="461px" height="461px" viewBox="0 0 461 461" version="1.1" xmlns="http://www.w3.org/2000/svg" xmlns:xlink="http://www.w3.org/1999/xlink">
    <!-- Generator: Sketch 51.1 (57501) - http://www.bohemiancoding.com/sketch -->
    <title>AboutMe-cn</title>
    <desc>Created with Sketch.</desc>
    <defs>
        <linearGradient x1="50%" y1="0%" x2="50%" y2="100%" id="linearGradient-1">
            <stop stop-color="#FFA6A6" offset="0%"></stop>
            <stop stop-color="#FF6D6D" stop-opacity="0.2" offset="100%"></stop>
        </linearGradient>
        <linearGradient x1="50%" y1="0%" x2="50%" y2="100%" id="linearGradient-2">
            <stop stop-color="#6555FF" stop-opacity="0.625424592" offset="0%"></stop>
            <stop stop-color="#C86DD7" stop-opacity="0.05" offset="100%"></stop>
        </linearGradient>
        <circle id="path-3" cx="210" cy="211" r="210"></circle>
        <filter x="-1.0%" y="-1.0%" width="103.8%" height="103.8%" filterUnits="objectBoundingBox" id="filter-4">
            <feOffset dx="4" dy="4" in="SourceAlpha" result="shadowOffsetOuter1"></feOffset>
            <feGaussianBlur stdDeviation="2" in="shadowOffsetOuter1" result="shadowBlurOuter1"></feGaussianBlur>
            <feColorMatrix values="0 0 0 0 0   0 0 0 0 0   0 0 0 0 0  0 0 0 0.0598675272 0" type="matrix" in="shadowBlurOuter1"></feColorMatrix>
        </filter>
    </defs>
    <g id="Page-2---mysite" stroke="none" stroke-width="1" fill="none" fill-rule="evenodd">
        <g id="mysite-v3---cn" transform="translate(-732.000000, -275.000000)">
            <g id="AboutMe-cn" transform="translate(750.000000, 295.000000)">
                <path d="M212.5,421 C328.75594,421 423,326.75594 423,210.5 C423,94.2440602 328.75594,0 212.5,0 C96.2440602,0 2,94.2440602 2,210.5 C2,326.75594 96.2440602,421 212.5,421 Z" id="projects-circle-copy" stroke="url(#linearGradient-1)" stroke-width="40" stroke-linecap="round" stroke-dasharray="659,1318" fill-rule="nonzero" transform="translate(212.500000, 210.500000) scale(-1, 1) translate(-212.500000, -210.500000) "></path>
                <path d="M212.5,421 C328.75594,421 423,326.75594 423,210.5 C423,94.2440602 328.75594,0 212.5,0 C96.2440602,0 2,94.2440602 2,210.5 C2,326.75594 96.2440602,421 212.5,421 Z" id="upcoming-circle-copy" stroke="url(#linearGradient-2)" stroke-width="40" stroke-linecap="round" stroke-dasharray="659,1318" fill-rule="nonzero" transform="translate(212.500000, 210.500000) scale(1, -1) translate(-212.500000, -210.500000) "></path>
                <g id="Oval-2" fill-rule="nonzero">
                    <use fill="black" fill-opacity="1" filter="url(#filter-4)" xlink:href="#path-3"></use>
                    <use fill="#FFFFFF" xlink:href="#path-3"></use>
                </g>
                <g id="title" transform="translate(126.000000, 160.000000)" fill="#424242" font-family="PingFangSC-Light, PingFang SC" font-weight="300" letter-spacing="0.5">
                    <g>
                        <text id="关于我" font-size="48">
                            <tspan x="7" y="51">关于</tspan>
                            <tspan x="104" y="51" font-family="PingFangSC-Semibold, PingFang SC" font-weight="500">我</tspan>
                        </text>
                        <text id="从-程序员-到-设计师" font-size="18" fill-opacity="0.640143795">
                            <tspan x="0" y="96">从 程序员 到 设计师</tspan>
                        </text>
                    </g>
                </g>
            </g>
        </g>
    </g>
</svg>